<svg xmlns="http://www.w3.org/2000/svg" viewBox="0 0 53.14 53.14"><defs><style>.cls-1,.cls-4,.cls-7{fill:#fba59f;}.cls-1,.cls-4,.cls-6,.cls-8{stroke:#fba59f;}.cls-1,.cls-2,.cls-4,.cls-5,.cls-6,.cls-7,.cls-8{stroke-miterlimit:10;}.cls-2,.cls-3,.cls-6,.cls-8{fill:#fff;}.cls-2,.cls-5,.cls-7{stroke:#fff;}.cls-4,.cls-5,.cls-6,.cls-7{stroke-width:0.5px;}.cls-5{fill:#fcfcfc;}.cls-8{stroke-width:0.25px;}</style></defs><title>App_ikon_faerdig</title><g id="Layer_2" data-name="Layer 2"><g id="logo_copy" data-name="logo copy"><rect class="cls-1" x="0.5" y="0.5" width="52.14" height="52.14" rx="13.64" ry="13.64"/><path class="cls-2" d="M51.81,42.81c-2.08-1.33-13.7-8.9-13.7-8.9s-1.12-.37-2.82-.84a12.93,12.93,0,0,0-3.22-.25,31.74,31.74,0,0,1-4.4-.36c-4.22-.63-4.32-.33-3.49.52,1,1,6.16,1.84,5.5,2.73s-5.51-.4-5.51-.4L21.57,34s-3.42-2.08-5.79-1.81-1.33,1.41-1.33,1.41,3.74.66,2.16.84-1.1,1.11-1.1,1.11c1.66.35,10.72,4,10.72,4a10.92,10.92,0,0,0,3.09,1.56C37,41.11,40,42.6,40,42.6c1.64.22,6,4.46,6,4.46A17.68,17.68,0,0,0,48,48.83l.94-.91.84-1,.62-.94.64-1.15.53-1.28Z"/><rect class="cls-3" x="14.97" y="14.67" width="20.51" height="13.68" rx="1.82" ry="1.82" transform="translate(5.89 -5.42) rotate(13.86)"/><circle class="cls-3" cx="21.57" cy="12.24" r="6.46"/><circle class="cls-3" cx="34.63" cy="15.18" r="6.46"/><polygon class="cls-3" points="14.76 16.96 13.43 22.42 7.56 22.78 10.9 11.99 14.76 16.96"/><polygon class="cls-4" points="13.25 14.91 11.16 22.48 11.79 22.48 13.6 15.21 13.25 14.91"/><circle class="cls-5" cx="21.59" cy="11.96" r="4.25" transform="translate(4.8 30.06) rotate(-76.14)"/><circle class="cls-6" cx="21.68" cy="11.96" r="4.25" transform="translate(4.87 30.15) rotate(-76.14)"/><circle class="cls-7" cx="21.68" cy="11.99" r="3.08" transform="translate(4.85 30.17) rotate(-76.14)"/><circle class="cls-7" cx="34.87" cy="14.8" r="4.44" transform="translate(12.14 45.11) rotate(-76.14)"/><circle class="cls-7" cx="34.86" cy="14.84" r="3.23" transform="translate(12.1 45.13) rotate(-76.14)"/><rect class="cls-8" x="16.74" y="23.11" width="15.21" height="3.94" rx="1.82" ry="1.82" transform="translate(6.72 -5.1) rotate(13.86)"/></g></g></svg>
